<svg xmlns="http://www.w3.org/2000/svg" width="1000" height="800" viewBox="0 0 1000 800" version="1.1"><path d="M 345 253.981 L 345 390.962 342.750 391.469 C 338.240 392.485, 311.693 395.026, 311.160 394.493 C 310.254 393.587, 315.805 383.130, 322.652 372.845 L 329.084 363.183 328.448 360.649 L 327.812 358.114 325.734 357.807 C 324.592 357.638, 323.500 357.023, 323.308 356.440 L 322.960 355.380 326.614 350.690 C 328.623 348.110, 330.638 346, 331.090 346 L 331.912 346 332.257 353.250 L 332.603 360.500 332.768 351.500 L 332.933 342.500 326.999 349 C 319.122 357.627, 311.092 368.794, 306.145 378 L 302.114 385.500 298.848 395 L 295.582 404.500 295.541 419 L 295.500 433.500 297.284 440 C 298.265 443.575, 300.333 449.200, 301.881 452.500 L 304.694 458.500 308.388 462.894 C 310.420 465.311, 313.928 468.748, 316.183 470.533 L 320.283 473.777 325.391 471.398 L 330.500 469.020 334.290 469.010 L 338.080 469 341.858 470.928 L 345.636 472.855 349.429 477.053 L 353.221 481.250 352.645 484.875 L 352.069 488.500 349.076 491.199 L 346.083 493.898 340.860 495.449 C 334.582 497.313, 330.097 497.409, 324.705 495.793 L 320.677 494.587 317.089 490.947 C 315.115 488.944, 311.397 485.889, 308.826 484.158 L 304.152 481.009 304.715 486.254 C 305.025 489.139, 307.355 509.500, 309.894 531.500 L 314.510 571.500 318.505 571.500 L 322.500 571.500 322.827 574.500 C 323.007 576.150, 323.457 577.812, 323.827 578.193 L 324.500 578.887 332 577.933 C 339.496 576.981, 354.445 575.253, 525.903 555.520 L 617.306 545 642.498 545 L 667.690 545 669.345 543.171 C 670.255 542.165, 671 540.824, 671 540.190 L 671 539.038 673.250 538.559 C 674.487 538.296, 682.587 537.310, 691.250 536.367 L 707 534.653 706.992 532.076 C 706.988 530.659, 705.881 520.100, 704.532 508.611 L 702.080 487.721 707.514 481.175 L 712.948 474.628 716.350 468.064 C 720.262 460.517, 723.437 451.102, 724.949 442.566 L 726 436.633 726 426.274 L 726 415.916 724.410 408.208 C 721.177 392.534, 715.146 378.905, 704.647 363.545 L 698.500 354.554 689.075 344.722 C 683.891 339.315, 677.816 333.470, 675.575 331.733 L 671.500 328.575 679.182 336.706 C 692.941 351.268, 703.854 367.787, 710.086 383.487 L 713.256 391.473 715.225 400.987 L 717.195 410.500 716.711 423.500 L 716.227 436.500 713.604 445.297 C 710.403 456.036, 706.689 463.555, 700.560 471.708 L 695.903 477.903 689.702 482.504 C 686.291 485.034, 681.642 488.849, 679.371 490.981 L 675.241 494.858 670.871 496.039 L 666.500 497.220 661.363 496.694 L 656.225 496.168 652.863 494.470 C 651.013 493.536, 648.263 491.614, 646.750 490.199 L 644 487.626 644 483.848 L 644 480.070 647.044 476.603 L 650.088 473.136 654.360 471.068 L 658.631 469 662.646 469 L 666.661 469 671.353 471.375 L 676.044 473.750 679.831 471.007 C 681.914 469.499, 685.247 466.361, 687.238 464.036 L 690.857 459.807 694.527 452.379 L 698.198 444.951 696.503 442.363 L 694.807 439.776 695.270 436.138 L 695.732 432.500 692.821 407 L 689.911 381.500 690.362 379.749 L 690.813 377.997 689.967 378.520 L 689.121 379.043 689.255 377.262 L 689.389 375.480 683.601 366.781 L 677.812 358.081 669.952 349.791 L 662.092 341.500 662.046 348.114 L 662 354.728 657.360 355.364 C 654.809 355.714, 652.111 356, 651.365 356 L 650.010 356 649.750 257.250 L 649.490 158.500 649.245 257.205 L 649 355.909 645.750 356.467 C 642.722 356.986, 634.305 357.967, 576.500 364.541 C 564.400 365.917, 543.250 368.361, 529.500 369.972 C 515.750 371.583, 494.150 374.049, 481.500 375.451 C 468.850 376.854, 454.900 378.450, 450.500 378.998 C 434.958 380.936, 382.311 387, 368 388.501 C 360.025 389.338, 351.813 390.282, 349.750 390.599 L 346 391.176 346 254.588 L 346 118 470.477 118 L 594.955 118 595.251 136.250 L 595.548 154.500 595.774 135.750 L 596 117 470.500 117 L 345 117 345 253.981 M 615.296 146.744 C 619.583 146.932, 626.333 146.931, 630.296 146.742 L 637.500 146.397 622.500 146.400 L 607.500 146.402 615.296 146.744 M 660.250 148.606 L 662 150.657 662 236.159 L 662 321.661 666.500 324.893 L 671 328.124 671 242.661 L 671 157.198 664.750 151.876 C 661.313 148.949, 659.288 147.478, 660.250 148.606 M 410.357 204.992 C 409.178 205.467, 407.491 206.889, 406.607 208.151 L 405 210.445 405 213.829 L 405 217.213 412.169 224.607 L 419.338 232 412.169 239.393 L 405 246.787 405.022 250.143 L 405.044 253.500 406.772 255.518 C 407.723 256.628, 409.618 258.428, 410.985 259.518 L 413.471 261.500 409.735 257.247 L 406 252.994 406 250.382 L 406 247.770 413.673 239.885 L 421.347 232 413.673 224.115 L 406 216.230 406 213.671 L 406 211.112 408.342 208.389 L 410.683 205.667 413.900 205.667 L 417.117 205.667 424.332 212.833 C 428.300 216.775, 431.976 220, 432.500 220 C 433.024 220, 436.700 216.775, 440.668 212.833 L 447.883 205.667 450.972 205.667 L 454.061 205.667 457.664 209.083 L 461.266 212.500 459.485 209.699 L 457.703 206.898 454.779 205.385 L 451.854 203.873 449.109 204.476 L 446.364 205.079 439.961 211.539 C 436.439 215.093, 433.079 218, 432.495 218 C 431.910 218, 428.972 215.490, 425.966 212.423 C 418.265 204.566, 415.121 203.069, 410.357 204.992 M 534.500 204.945 C 533.400 205.396, 531.652 206.707, 530.615 207.860 L 528.731 209.955 529.290 214.127 L 529.850 218.298 536.621 225.122 L 543.392 231.945 536.196 239.366 L 529 246.787 529 249.328 C 529 250.726, 529.401 252.912, 529.891 254.185 L 530.781 256.500 534.141 258.937 L 537.500 261.375 533.750 257.184 L 530 252.994 530 250.269 L 530 247.544 537.700 239.799 L 545.399 232.054 537.700 224.142 L 530 216.230 530.032 213.365 L 530.064 210.500 531.363 208.789 C 532.078 207.848, 533.864 206.622, 535.331 206.064 L 538 205.050 540.250 205.938 L 542.500 206.826 548.971 213.413 C 552.530 217.036, 555.766 220, 556.162 220 C 556.557 220, 560.100 216.963, 564.035 213.250 C 567.970 209.537, 572.048 206.177, 573.096 205.782 L 575.002 205.064 576.751 205.676 C 577.713 206.014, 580.037 207.687, 581.916 209.395 L 585.331 212.500 583.149 209.322 L 580.966 206.144 577.627 205.042 L 574.288 203.940 571.894 204.882 L 569.500 205.824 563.531 211.912 C 560.249 215.260, 557.083 218, 556.497 218 C 555.911 218, 552.972 215.475, 549.966 212.389 L 544.500 206.778 541.282 205.389 C 537.660 203.825, 537.294 203.802, 534.500 204.945 M 453.491 228.009 L 446.536 235.018 453.927 242.259 L 461.319 249.500 458.248 245.500 C 456.558 243.300, 453.555 239.943, 451.574 238.040 L 447.971 234.579 454.709 227.790 C 458.414 224.055, 461.221 221, 460.946 221 C 460.671 221, 457.316 224.154, 453.491 228.009 M 573.978 231.523 L 570.563 235.046 577.941 242.273 L 585.319 249.500 582.248 245.500 C 580.558 243.300, 577.560 239.948, 575.585 238.051 L 571.994 234.602 575.193 231.301 C 576.953 229.485, 578.167 228, 577.892 228 C 577.617 228, 575.856 229.585, 573.978 231.523 M 428.473 253.250 L 421.500 260.500 428.247 254.031 L 434.995 247.563 440.247 252.568 C 449.228 261.126, 450.863 261.799, 443.025 253.712 C 438.914 249.471, 435.527 246, 435.498 246 C 435.470 246, 432.308 249.262, 428.473 253.250 M 552.971 252.750 L 546.500 259.499 552.749 253.532 L 558.997 247.565 564.249 252.569 C 573.228 261.126, 574.862 261.798, 567.025 253.712 C 562.914 249.471, 559.526 246, 559.496 246 C 559.466 246, 556.530 249.037, 552.971 252.750 M 486 296.459 C 485.175 296.657, 481.125 297.367, 477 298.037 C 472.875 298.706, 465 300.711, 459.500 302.492 L 449.500 305.729 438.072 311.414 L 426.644 317.099 417.438 323.518 L 408.231 329.937 405.527 333.150 L 402.823 336.364 403.436 339.429 L 404.049 342.493 406.198 344.497 L 408.348 346.500 406.674 343.785 L 405 341.070 405 337.936 L 405 334.802 408.196 331.817 C 409.954 330.175, 415.466 326.131, 420.446 322.830 L 429.500 316.828 440.500 311.504 L 451.500 306.180 460 303.526 C 464.675 302.066, 471.650 300.192, 475.500 299.362 L 482.500 297.854 494 297.296 L 505.500 296.737 514.281 297.910 C 519.110 298.555, 526.985 300.199, 531.781 301.563 L 540.500 304.043 551.500 309.405 L 562.500 314.766 569.525 319.751 C 573.389 322.493, 579.126 327.091, 582.275 329.968 L 588 335.201 588 334.217 C 588 332.546, 574.985 321.972, 565 315.530 C 552.211 307.279, 542.283 302.926, 527 298.870 L 519.500 296.879 503.500 296.488 C 494.700 296.273, 486.825 296.260, 486 296.459 M 498.280 314.736 C 500.909 314.943, 504.959 314.940, 507.280 314.731 L 511.500 314.349 502.500 314.355 L 493.500 314.360 498.280 314.736 M 319.477 334.250 L 311.500 342.500 319.750 334.523 C 327.412 327.115, 328.456 326, 327.727 326 C 327.576 326, 323.864 329.712, 319.477 334.250 M 564.750 336.140 C 565.438 337.001, 568.813 339.895, 572.250 342.572 C 575.688 345.249, 577.845 346.621, 577.045 345.620 C 576.245 344.620, 572.870 341.726, 569.545 339.188 C 566.220 336.651, 564.063 335.279, 564.750 336.140 M 489.821 414.395 L 485.141 415.655 481.570 418.379 L 477.998 421.103 476.288 424.302 L 474.577 427.500 474.749 436 C 474.843 440.675, 475.567 451.129, 476.357 459.231 L 477.794 473.963 479.647 477.125 C 480.666 478.865, 483.228 481.686, 485.341 483.394 L 489.181 486.500 498.485 486.843 L 507.788 487.186 513.321 486.037 L 518.854 484.889 522.891 481.964 L 526.928 479.039 528.321 476.270 C 529.087 474.746, 529.988 472.058, 530.323 470.295 L 530.932 467.091 529.036 446.631 L 527.140 426.171 525.665 423.336 C 523.852 419.850, 520.523 416.751, 516.300 414.617 L 513.099 413 503.800 413.067 L 494.500 413.135 489.821 414.395 M 572.571 433.427 L 558.796 451.066 558.054 459.283 C 557.645 463.802, 557.412 467.633, 557.535 467.796 C 557.659 467.960, 563.551 468.558, 570.630 469.126 C 577.708 469.694, 584.175 470.383, 585 470.656 L 586.500 471.154 583.840 473.327 L 581.180 475.500 580.840 481.251 C 580.653 484.415, 580.500 487.047, 580.500 487.102 C 580.500 487.156, 586.800 487.769, 594.500 488.463 L 608.500 489.725 609.235 488.612 C 609.639 488.001, 609.976 484.939, 609.985 481.809 L 610 476.118 609 475.500 C 608.450 475.160, 608 474.203, 608 473.374 L 608 471.865 610.005 472.502 L 612.010 473.138 612.424 471.819 C 612.652 471.094, 613.057 467.688, 613.324 464.250 L 613.810 458 611.333 458 L 608.856 458 609.438 452.750 C 610.282 445.143, 611.978 423.949, 611.990 420.861 L 612 418.223 608.750 417.669 C 606.962 417.364, 601.190 416.817, 595.923 416.452 L 586.346 415.788 572.571 433.427 M 421.064 428.392 L 409.628 431.615 402.659 452.524 L 395.689 473.432 396.927 479.425 C 397.608 482.721, 398.690 486.606, 399.332 488.059 L 400.500 490.700 412.500 487.384 C 419.100 485.559, 425.128 483.939, 425.896 483.783 L 427.293 483.500 427.691 484.634 L 428.089 485.768 426.420 487.437 L 424.751 489.106 426.338 494.681 C 427.210 497.748, 428.079 500.413, 428.270 500.603 C 428.609 500.942, 455.203 494.095, 455.809 493.512 C 455.979 493.349, 455.447 490.642, 454.626 487.498 L 453.133 481.781 451.066 480.334 C 449.930 479.538, 449 478.462, 449 477.943 L 449 477 451.111 477 L 453.223 477 452.540 473.361 C 452.164 471.359, 451.319 468.097, 450.662 466.111 L 449.467 462.500 447.287 462.804 L 445.106 463.108 443.966 458.804 C 443.339 456.437, 441.065 448.089, 438.913 440.253 C 436.761 432.418, 435 425.780, 435 425.503 C 435 424.628, 432.797 425.085, 421.064 428.392 M 498.507 429.372 L 496.631 430.743 498.232 449.122 C 499.113 459.230, 500.138 468.270, 500.509 469.212 L 501.185 470.924 503.204 471.565 L 505.223 472.206 506.765 470.663 L 508.308 469.121 506.628 449.811 L 504.949 430.500 503.283 429.250 C 501.189 427.679, 500.809 427.688, 498.507 429.372 M 581.628 448.833 L 577.140 454.667 578.320 454.703 C 578.969 454.723, 581.121 455.061, 583.103 455.454 L 586.705 456.167 587.353 451.444 C 587.709 448.846, 588 445.884, 588 444.860 L 588 443 587.058 443 C 586.541 443, 584.097 445.625, 581.628 448.833 M 419.407 457.776 C 418.131 458.621, 413.779 471.112, 414.507 471.840 C 414.778 472.111, 415.001 471.921, 415.002 471.417 L 415.005 470.500 418.208 470.383 L 421.411 470.266 421.791 469.127 L 422.171 467.988 422.987 468.492 L 423.803 468.996 422.520 464.733 C 421.815 462.389, 421.071 459.701, 420.869 458.762 L 420.500 457.053 419.407 457.776 M 633.780 534.917 C 621.284 536.396, 610.859 537.808, 610.613 538.053 C 610.367 538.299, 621.041 538.345, 634.333 538.155 L 658.500 537.811 660.250 536.250 C 661.212 535.392, 662 534.085, 662 533.345 L 662 532 659.250 532.114 C 657.737 532.176, 646.276 533.438, 633.780 534.917" stroke="none" fill="#fcdbcc" fill-rule="evenodd"/><path d="M 337.354 103.687 C 336.174 103.920, 334.493 104.903, 333.618 105.870 L 332.027 107.628 331.763 214.886 L 331.500 322.144 328.461 324.822 C 326.790 326.295, 326.115 327.071, 326.961 326.547 C 327.807 326.024, 329.512 324.708, 330.750 323.623 L 333 321.651 333 214.981 L 333 108.310 334.829 106.655 L 336.657 105 470.648 105 L 604.639 105 618.932 116.086 C 626.792 122.184, 633.061 126.710, 632.862 126.146 C 632.663 125.582, 630.176 123.405, 627.335 121.310 C 624.494 119.214, 618.194 114.350, 613.335 110.500 L 604.500 103.500 472 103.381 C 399.125 103.315, 338.534 103.453, 337.354 103.687 M 346 254.588 L 346 391.176 349.750 390.599 C 351.813 390.282, 360.025 389.338, 368 388.501 C 382.311 387, 434.958 380.936, 450.500 378.998 C 454.900 378.450, 468.850 376.854, 481.500 375.451 C 494.150 374.049, 515.750 371.583, 529.500 369.972 C 543.250 368.361, 564.400 365.917, 576.500 364.541 C 634.305 357.967, 642.722 356.986, 645.750 356.467 L 649 355.909 649 257.455 L 649 159 624.250 158.985 L 599.500 158.969 598.400 158.235 C 597.795 157.831, 596.782 156.517, 596.150 155.316 L 595 153.131 595 135.566 L 595 118 470.500 118 L 346 118 346 254.588 M 608 135.500 L 608 146 622.136 146 L 636.272 146 628.886 140.220 C 611.927 126.947, 609.343 125, 608.688 125 L 608 125 608 135.500 M 634 127.311 C 634 127.546, 639.737 132.151, 646.750 137.543 C 653.763 142.936, 662.087 149.564, 665.250 152.273 L 671 157.198 671.031 242.849 L 671.063 328.500 673.781 330.482 L 676.500 332.463 674.250 329.597 L 672 326.730 672 242.412 L 672 158.094 670.920 155.797 L 669.839 153.500 664.670 149.694 C 650.662 139.382, 648.088 137.450, 642.510 133.062 C 636.163 128.070, 634 126.608, 634 127.311 M 410.357 204.992 C 409.178 205.467, 407.491 206.889, 406.607 208.151 L 405 210.445 405 213.829 L 405 217.213 412.169 224.607 L 419.338 232 412.169 239.393 L 405 246.787 405 250.345 L 405 253.904 408.593 257.393 L 412.185 260.882 415.034 261.507 L 417.883 262.133 420.191 260.954 C 421.461 260.305, 425.288 257.050, 428.695 253.721 L 434.889 247.667 441.551 253.899 L 448.212 260.130 450.817 261.121 L 453.422 262.111 455.683 261.543 C 456.927 261.231, 458.857 259.996, 459.972 258.799 L 462 256.623 462 253.401 L 462 250.180 458.127 245.340 C 455.997 242.678, 452.849 239.181, 451.133 237.569 L 448.013 234.638 455.006 227.426 L 462 220.213 462 216.975 L 462 213.736 459.903 210.344 L 457.807 206.952 454.830 205.412 L 451.854 203.873 449.109 204.476 L 446.364 205.079 439.961 211.539 C 436.439 215.093, 433.079 218, 432.495 218 C 431.910 218, 428.972 215.490, 425.966 212.423 C 418.265 204.566, 415.121 203.069, 410.357 204.992 M 534.500 204.945 C 533.400 205.396, 531.652 206.707, 530.615 207.860 L 528.731 209.955 529.290 214.127 L 529.850 218.298 536.621 225.122 L 543.392 231.945 536.068 239.498 L 528.744 247.051 529.306 251.248 L 529.869 255.445 533.185 258.180 L 536.500 260.914 539.191 261.524 L 541.883 262.133 544.191 260.902 C 545.461 260.226, 549.302 256.984, 552.727 253.700 L 558.954 247.727 565.583 253.929 L 572.212 260.130 574.817 261.121 L 577.422 262.111 579.683 261.543 C 580.927 261.231, 582.857 259.996, 583.972 258.799 L 586 256.623 586 253.446 L 586 250.270 583.838 247.385 C 582.649 245.798, 579.518 242.250, 576.880 239.500 L 572.083 234.500 579.042 227.228 L 586 219.956 586 216.710 L 586 213.464 583.521 209.817 L 581.043 206.169 577.666 205.055 L 574.288 203.940 571.894 204.882 L 569.500 205.824 563.531 211.912 C 560.249 215.260, 557.083 218, 556.497 218 C 555.911 218, 552.972 215.475, 549.966 212.389 L 544.500 206.778 541.282 205.389 C 537.660 203.825, 537.294 203.802, 534.500 204.945 M 486 296.459 C 485.175 296.657, 481.125 297.367, 477 298.037 C 472.875 298.706, 465 300.711, 459.500 302.492 L 449.500 305.729 438.072 311.414 L 426.644 317.099 417.438 323.518 C 408.180 329.972, 403 334.993, 403 337.512 C 403 338.259, 403.432 340.006, 403.960 341.394 L 404.919 343.918 408.933 346.574 L 412.946 349.230 415.223 348.642 C 416.475 348.319, 421.100 345.357, 425.500 342.061 L 433.500 336.067 445.023 330.091 L 456.547 324.114 465.523 321.122 C 470.461 319.476, 478.550 317.375, 483.500 316.452 L 492.500 314.774 506.500 315.265 L 520.500 315.756 529 318.312 C 545.062 323.140, 555.117 328.676, 570.753 341.300 L 579.006 347.963 581.410 348.567 L 583.814 349.170 586.157 347.922 C 589.333 346.229, 590.930 343.971, 590.968 341.118 L 591 338.736 589.033 335.553 L 587.066 332.370 580.783 327.022 C 564.961 313.554, 547.100 304.205, 527 298.870 L 519.500 296.879 503.500 296.488 C 494.700 296.273, 486.825 296.260, 486 296.459 M 705.445 364.750 C 715.064 378.724, 721.253 392.904, 724.410 408.208 L 726 415.916 726 426.274 L 726 436.633 724.931 442.414 C 723.650 449.344, 724.391 450.969, 726.043 444.851 L 727.218 440.500 727.228 426 L 727.238 411.500 725.743 407 C 724.921 404.525, 723.678 400.250, 722.981 397.500 L 721.714 392.500 715.959 380.806 L 710.203 369.112 705.543 363.056 C 702.980 359.725, 700.709 357, 700.496 357 C 700.284 357, 702.511 360.488, 705.445 364.750 M 332 375.450 L 332 390.901 330.250 391.920 L 328.500 392.939 330.750 392.970 L 333 393 333 376.500 C 333 367.425, 332.775 360, 332.500 360 C 332.225 360, 332 366.953, 332 375.450 M 689.594 379.500 C 689.883 381.150, 690.726 387.450, 691.466 393.500 L 692.812 404.500 692.656 396.500 L 692.500 388.500 693.750 388.750 C 695.518 389.104, 695.287 388.219, 691.987 382 L 689.069 376.500 689.594 379.500 M 283.134 387.750 C 282.035 389.804, 279.550 401.889, 280.114 402.436 C 280.326 402.641, 281.418 399.028, 282.539 394.405 C 283.661 389.782, 284.464 386, 284.324 386 C 284.185 386, 283.649 386.788, 283.134 387.750 M 277.602 416.750 L 277.029 420.500 277.912 424 L 278.795 427.500 278.898 420.250 C 279.010 412.307, 278.495 410.915, 277.602 416.750 M 721.573 455.762 C 720.592 458.918, 718.250 464.454, 716.368 468.064 L 712.948 474.628 707.527 481.159 L 702.105 487.690 704.510 507.095 L 706.915 526.500 706.572 520 C 706.383 516.425, 705.666 507.550, 704.979 500.277 L 703.729 487.054 709.246 480.277 L 714.764 473.500 718.285 466.468 C 721.665 459.716, 724.554 451.221, 723.745 450.411 C 723.532 450.198, 722.555 452.606, 721.573 455.762 M 290.986 466.973 C 291.566 468.058, 294.321 471.686, 297.108 475.034 L 302.175 481.122 303.004 484.013 C 303.460 485.603, 304.131 491.538, 304.496 497.202 C 304.860 502.866, 305.554 508.850, 306.037 510.500 C 306.520 512.150, 307.858 523.400, 309.010 535.500 C 310.161 547.600, 311.495 558.625, 311.973 560 L 312.842 562.500 312.921 560.342 C 312.983 558.650, 306.710 502.072, 304.565 484.984 L 304.124 481.467 299.943 476.984 C 297.644 474.518, 294.631 470.813, 293.248 468.750 C 290.566 464.749, 289.237 463.705, 290.986 466.973 M 707.150 531.193 L 707 534.885 702.750 535.268 L 698.500 535.651 702.781 535.825 L 707.063 536 707.606 534.584 C 707.905 533.806, 707.958 531.893, 707.724 530.334 L 707.300 527.500 707.150 531.193 M 679 537.680 C 677.075 537.878, 674.487 538.264, 673.250 538.539 L 671 539.038 671 540.190 C 671 540.824, 670.212 542.267, 669.250 543.398 L 667.500 545.453 671.285 542.226 L 675.070 539 679.785 538.900 C 682.378 538.845, 685.625 538.440, 687 538 L 689.500 537.199 686 537.260 C 684.075 537.293, 680.925 537.482, 679 537.680 M 626.250 545.748 C 633.813 545.917, 646.188 545.917, 653.750 545.748 L 667.500 545.439 640 545.439 L 612.500 545.439 626.250 545.748 M 574 550 C 566.575 550.962, 561.659 551.806, 563.076 551.875 C 567.277 552.079, 587.137 549.891, 589.406 548.973 L 591.500 548.127 589.500 548.189 C 588.400 548.223, 581.425 549.038, 574 550 M 526.500 555.561 L 517.500 556.859 526.690 556.359 C 531.744 556.084, 537.144 555.480, 538.690 555.016 L 541.500 554.172 538.500 554.218 C 536.850 554.243, 531.450 554.847, 526.500 555.561 M 478.500 561 C 471.350 561.951, 466.434 562.791, 467.576 562.865 C 470.926 563.083, 491.228 560.939, 494.500 560.022 L 497.500 559.180 494.500 559.225 C 492.850 559.250, 485.650 560.049, 478.500 561 M 430.500 566.564 L 421.500 567.866 431.115 567.382 C 436.404 567.117, 442.029 566.510, 443.615 566.036 L 446.500 565.172 443 565.218 C 441.075 565.243, 435.450 565.849, 430.500 566.564 M 387.500 571.564 L 378.500 572.866 388.345 572.365 L 398.190 571.865 400.345 570.996 L 402.500 570.127 399.500 570.195 C 397.850 570.233, 392.450 570.849, 387.500 571.564 M 317.606 571.829 L 317.022 572.773 318.999 573.290 L 320.976 573.806 321.963 576.403 C 323.357 580.070, 323.786 579.627, 323.079 575.250 L 322.473 571.500 320.331 571.193 L 318.189 570.886 317.606 571.829 M 340.318 576.875 L 327.136 578.500 326.318 579.374 L 325.500 580.248 327.500 579.649 C 328.600 579.320, 334.826 578.560, 341.336 577.961 C 347.846 577.362, 354.146 576.479, 355.336 575.999 L 357.500 575.127 355.500 575.188 C 354.400 575.222, 347.568 575.981, 340.318 576.875" stroke="none" fill="#ffffff" fill-rule="evenodd"/><path d="M 411.357 206.001 C 410.178 206.471, 408.491 207.889, 407.607 209.151 L 406 211.445 406 213.837 L 406 216.230 413.673 224.115 L 421.347 232 413.673 239.885 L 406 247.770 406 250.250 L 406 252.730 408.073 255.365 L 410.145 258 413.849 258 L 417.554 258 424.500 251 C 428.320 247.150, 431.844 244, 432.330 244 C 432.816 244, 436.462 247.150, 440.432 251 L 447.651 258 451.253 258 L 454.855 258 456.927 255.365 L 459 252.730 459 250.355 L 459 247.980 452 240.431 C 448.150 236.278, 445 232.380, 445 231.766 C 445 231.153, 448.150 227.403, 452 223.432 L 459 216.213 459 213.662 L 459 211.112 456.658 208.389 L 454.317 205.667 451.100 205.667 L 447.883 205.667 440.668 212.833 C 436.700 216.775, 433.024 220, 432.500 220 C 431.976 220, 428.386 216.896, 424.524 213.103 L 417.500 206.205 415.500 205.675 L 413.500 205.145 411.357 206.001 M 535.091 206.099 C 533.766 206.624, 532.092 207.829, 531.373 208.777 L 530.064 210.500 530.032 213.365 L 530 216.230 537.700 224.142 L 545.399 232.054 537.700 239.799 L 530 247.544 530 250.137 L 530 252.730 532.073 255.365 L 534.145 258 537.849 258 L 541.554 258 548.500 251 C 552.320 247.150, 555.844 244, 556.330 244 C 556.816 244, 560.462 247.150, 564.432 251 L 571.651 258 575.253 258 L 578.855 258 580.927 255.365 L 583 252.730 583 250.355 L 583 247.980 576 240.431 C 572.150 236.278, 569 232.380, 569 231.766 C 569 231.153, 572.150 227.403, 576 223.432 L 583 216.213 583 213.829 L 583 211.445 581.399 209.159 C 580.519 207.902, 578.723 206.465, 577.409 205.965 L 575.020 205.057 573.078 205.779 C 572.010 206.175, 568.293 209.218, 564.818 212.539 C 561.343 215.861, 557.891 218.954, 557.147 219.412 L 555.794 220.245 548.647 213.225 L 541.500 206.205 539.500 205.675 L 537.500 205.145 535.091 206.099 M 486 297.648 C 476.604 299.059, 470.244 300.483, 461.500 303.133 L 451.500 306.164 440.500 311.496 L 429.500 316.828 420.446 322.830 C 415.466 326.131, 409.954 330.175, 408.196 331.817 L 405 334.802 405 337.997 L 405 341.191 406.973 343.962 L 408.946 346.733 411.723 346.209 L 414.500 345.685 424 338.879 L 433.500 332.074 443.049 327.076 L 452.598 322.079 463.049 318.585 L 473.500 315.091 482.381 313.546 L 491.262 312 500.021 312 L 508.779 312 516.940 313.548 C 521.428 314.400, 528.016 315.997, 531.579 317.097 L 538.057 319.098 537.374 320.204 L 536.691 321.309 537.854 320.590 L 539.018 319.871 541.023 320.507 L 543.029 321.144 542.463 322.061 L 541.896 322.977 543.612 322.319 L 545.328 321.660 544.510 322.985 L 543.691 324.309 544.755 323.651 L 545.820 322.994 547.404 323.602 L 548.989 324.210 548.442 325.093 L 547.896 325.977 549.440 325.385 L 550.983 324.792 551.596 326.391 L 552.210 327.989 553.105 327.435 L 554 326.882 554 328 L 554 329.118 555.007 328.496 L 556.014 327.873 556.612 329.431 L 557.210 330.989 558 330.500 L 558.790 330.011 559.388 331.569 L 559.986 333.127 560.993 332.504 L 562 331.882 562 332.748 C 562 333.224, 564.814 335.680, 568.253 338.206 C 571.692 340.731, 575.292 343.665, 576.252 344.726 L 577.997 346.654 580.920 346.225 L 583.843 345.796 585.841 343.648 L 587.840 341.500 588.170 338.500 L 588.500 335.500 582.500 330.118 C 579.200 327.158, 573.350 322.493, 569.500 319.751 L 562.500 314.766 551.500 309.405 L 540.500 304.043 531.888 301.594 C 527.151 300.247, 519.806 298.662, 515.566 298.072 L 507.855 297 498.178 297.136 C 492.855 297.211, 487.375 297.441, 486 297.648" stroke="none" fill="#e74443" fill-rule="evenodd"/><path d="M 335 107 L 333 109 333 215.447 L 333 321.895 322.876 331.697 L 312.752 341.500 306.519 349.500 C 298.864 359.326, 296.138 363.648, 290.483 374.926 L 286.070 383.729 283.522 392.522 L 280.974 401.314 279.923 410.738 L 278.872 420.162 279.926 428.834 C 281.240 439.636, 283.178 447.169, 287.009 456.354 L 289.988 463.500 295.244 470.460 L 300.500 477.420 306 481.741 C 309.025 484.117, 313.881 488.060, 316.792 490.503 L 322.084 494.946 326.292 496.081 L 330.500 497.216 335.365 496.641 L 340.230 496.067 344.713 493.897 L 349.195 491.727 351.137 488.613 L 353.078 485.500 352.519 482.527 L 351.961 479.555 348.730 476.155 L 345.500 472.756 341.500 470.900 L 337.500 469.044 333.919 469.022 L 330.339 469 325.453 471.473 L 320.568 473.947 318.073 472.312 C 316.701 471.413, 313.402 468.408, 310.742 465.634 L 305.907 460.591 302.449 453.545 L 298.990 446.500 296.882 438.084 L 294.774 429.669 295.215 417.084 L 295.655 404.500 298.885 395 L 302.114 385.500 306.145 378 C 311.092 368.794, 319.122 357.627, 326.999 349 L 332.933 342.500 332.967 367.250 L 333 392 336.750 391.986 C 338.813 391.979, 341.512 391.701, 342.750 391.370 L 345 390.767 345 253.883 L 345 117 470.500 117 L 596 117 596 136.443 L 596 155.887 598.223 157.443 L 600.445 159 625.223 159 L 650 159 650 257.631 L 650 356.262 653.750 355.642 C 655.813 355.301, 658.513 355.017, 659.750 355.011 L 662 355 662.039 348.250 L 662.079 341.500 669.789 349.550 L 677.500 357.600 683.115 366.050 C 686.203 370.697, 690.362 377.745, 692.358 381.712 L 695.987 388.923 698.662 397.712 L 701.338 406.500 701.392 419.500 L 701.446 432.500 699.650 439 C 698.663 442.575, 696.345 448.650, 694.500 452.500 L 691.146 459.500 687.382 463.882 C 685.312 466.292, 681.875 469.527, 679.745 471.070 L 675.872 473.876 671.287 471.438 L 666.702 469 662.667 469 L 658.631 469 654.315 471.090 L 649.998 473.180 646.999 476.818 L 644 480.456 644 484.041 L 644 487.626 646.750 490.199 C 648.263 491.614, 650.924 493.490, 652.664 494.367 L 655.828 495.962 661.164 496.588 L 666.500 497.214 670.871 496.036 L 675.241 494.858 679.371 490.981 C 681.642 488.849, 686.291 485.034, 689.702 482.504 L 695.903 477.903 700.560 471.708 C 706.693 463.550, 710.405 456.031, 713.600 445.297 L 716.218 436.500 716.724 424 L 717.231 411.500 715.539 402.515 L 713.847 393.529 710.388 384.515 C 702.464 363.866, 684.471 339.199, 667.500 325.719 L 662.500 321.747 662 235.659 L 661.500 149.570 632.679 127.285 L 603.858 105 470.429 105 L 337 105 335 107 M 608 135.441 L 608 147 622.559 147 L 637.118 147 636.544 146.071 C 635.981 145.160, 611.700 126.081, 609.250 124.625 L 608 123.882 608 135.441 M 458.759 212.814 L 459.224 215.982 451.988 223.445 L 444.751 230.908 445.344 232.454 C 445.670 233.304, 446.325 234, 446.800 234 C 447.274 234, 450.888 230.673, 454.831 226.607 L 462 219.213 462 216.717 L 462 214.222 460.147 211.933 L 458.294 209.645 458.759 212.814 M 582.759 212.814 L 583.224 215.982 575.988 223.445 L 568.751 230.908 569.344 232.454 C 569.670 233.304, 570.301 234, 570.745 234 C 571.190 234, 574.568 230.963, 578.252 227.250 L 584.950 220.500 585.558 217.463 L 586.165 214.425 584.230 212.035 L 582.294 209.645 582.759 212.814 M 424.500 251 L 417.554 258 414.027 258.032 L 410.500 258.064 412.441 259.532 L 414.382 261 417.317 261 L 420.252 261 427.876 253.498 L 435.500 245.996 434 245.013 C 433.175 244.473, 432.263 244.024, 431.973 244.015 C 431.683 244.007, 428.320 247.150, 424.500 251 M 548.500 251 L 541.554 258 538.027 258.032 L 534.500 258.064 536.441 259.532 L 538.382 261 541.317 261 L 544.252 261 551.876 253.498 L 559.500 245.996 558 245.013 C 557.175 244.473, 556.263 244.024, 555.973 244.015 C 555.683 244.007, 552.320 247.150, 548.500 251 M 458.726 249.587 L 459.158 252.529 457.006 255.265 L 454.855 258 451.177 258.032 L 447.500 258.064 449.441 259.532 L 451.382 261 454.237 261 L 457.091 261 459.545 258.545 L 462 256.091 462 253.656 L 462 251.222 460.147 248.933 L 458.294 246.645 458.726 249.587 M 582.726 249.587 L 583.158 252.529 581.006 255.265 L 578.855 258 575.177 258.032 L 571.500 258.064 573.441 259.532 L 575.382 261 578.080 261 L 580.778 261 582.886 259.250 L 584.994 257.500 585.579 254.463 L 586.165 251.425 584.230 249.035 L 582.294 246.645 582.726 249.587 M 481.555 313.552 C 477.185 314.375, 468.882 316.630, 463.104 318.564 L 452.598 322.079 443.049 327.076 L 433.500 332.074 423.657 339.136 L 413.814 346.198 411.398 345.736 L 408.983 345.274 410.114 346.637 L 411.245 348 413.979 348 L 416.712 348 421.106 344.677 C 439.435 330.817, 456.639 322.360, 476.500 317.450 L 486.500 314.977 496.500 314.357 L 506.500 313.736 515.290 314.911 L 524.080 316.085 532.970 318.990 C 537.859 320.588, 544.141 323.051, 546.930 324.464 C 549.718 325.878, 552 326.772, 552 326.452 C 552 326.132, 548.155 324.068, 543.456 321.866 L 534.912 317.862 525.206 315.323 L 515.500 312.783 502.500 312.420 L 489.500 312.056 481.555 313.552 M 588 338.626 L 588 341.651 585.686 343.826 L 583.371 346 581.127 346 L 578.882 346 579.500 347 L 580.118 348 582.948 348 L 585.778 348 587.949 346.242 L 590.120 344.484 590.213 341.196 L 590.307 337.907 589.154 336.754 L 588 335.600 588 338.626 M 490.056 414.595 L 484.613 416.058 481.305 418.581 L 477.998 421.103 476.331 424.302 L 474.663 427.500 474.793 435.500 C 474.864 439.900, 475.591 450.339, 476.408 458.698 L 477.895 473.896 479.411 476.829 C 481.417 480.707, 486.084 484.542, 490.618 486.039 L 494.286 487.249 504.393 486.744 L 514.500 486.238 518 484.710 C 522.869 482.584, 526.775 479.335, 528.520 475.961 L 530 473.099 529.970 464.300 C 529.954 459.460, 529.319 449.200, 528.560 441.500 L 527.180 427.500 526.023 424.500 C 524.406 420.305, 521.181 417.050, 516.500 414.890 L 512.500 413.044 504 413.088 L 495.500 413.132 490.056 414.595 M 572.549 433.600 L 558.621 451.397 558.192 459.567 L 557.763 467.737 562.131 468.333 C 564.534 468.660, 570.672 469.228, 575.772 469.595 L 585.044 470.261 585.531 471.051 L 586.019 471.840 583.510 473.814 L 581 475.788 581 481.394 C 581 484.477, 581.112 487.051, 581.250 487.113 C 581.388 487.175, 587.662 487.746, 595.194 488.380 L 608.889 489.534 609.431 487.517 C 609.729 486.408, 609.979 483.389, 609.986 480.809 L 610 476.118 609 475.500 C 608.450 475.160, 608 474.234, 608 473.441 L 608 472 610.500 472 L 613 472 613 466.582 C 613 463.602, 613.273 460.452, 613.607 459.582 L 614.214 458 611.607 458 L 609 458 609.021 457.250 C 609.032 456.837, 609.701 448.850, 610.507 439.500 C 611.314 430.150, 611.980 421.539, 611.987 420.364 L 612 418.227 607.750 417.657 C 605.413 417.344, 599.670 416.799, 594.989 416.446 L 586.477 415.803 572.549 433.600 M 421.540 428.388 L 409.581 431.624 402.592 452.821 L 395.604 474.018 397.496 481.615 L 399.387 489.211 400.626 489.687 L 401.864 490.162 414.461 486.723 L 427.057 483.284 427.615 484.186 L 428.172 485.088 426.644 487.420 L 425.116 489.753 426.495 494.980 C 427.253 497.855, 428.029 500.363, 428.220 500.553 C 428.532 500.866, 455.074 494.042, 455.809 493.460 C 455.979 493.325, 455.353 490.579, 454.418 487.357 L 452.718 481.500 450.859 480.193 C 449.836 479.475, 449 478.462, 449 477.943 L 449 477 450.441 477 C 451.234 477, 452.158 476.554, 452.495 476.008 L 453.108 475.016 451.422 469.008 L 449.736 463 447.439 463 L 445.142 463 443.644 457.750 C 442.820 454.863, 440.466 446.313, 438.413 438.750 C 436.360 431.188, 434.415 425.034, 434.090 425.076 C 433.766 425.118, 428.118 426.608, 421.540 428.388 M 498.485 429.387 L 496.589 430.774 498.210 449.933 L 499.832 469.093 501.038 470.546 L 502.245 472 504 472 L 505.755 472 507.048 470.443 L 508.340 468.885 506.682 449.693 L 505.025 430.500 503.321 429.250 C 501.178 427.677, 500.809 427.688, 498.485 429.387 M 582.268 447.883 L 577.035 454.500 579.268 455.150 C 580.495 455.508, 582.705 455.845, 584.178 455.900 L 586.856 456 587.521 450.678 C 587.887 447.752, 588.032 444.436, 587.843 443.311 L 587.500 441.266 582.268 447.883 M 417.042 461.653 C 415.888 465.419, 414.710 469.257, 414.426 470.182 L 413.908 471.864 417.704 470.878 C 419.792 470.335, 422.038 469.714, 422.694 469.498 L 423.889 469.105 421.977 462.418 C 420.925 458.740, 419.856 455.523, 419.602 455.269 C 419.348 455.015, 418.196 457.888, 417.042 461.653 M 635 534.871 L 612.500 537.500 635.400 537.769 L 658.300 538.038 660.150 536.364 C 661.168 535.443, 662 534.085, 662 533.345 L 662 532 659.750 532.121 C 658.513 532.187, 647.375 533.425, 635 534.871" stroke="none" fill="#294148" fill-rule="evenodd"/></svg>